<?xml version="1.0" encoding="UTF-8" standalone="no"?>
<!-- Created with Inkscape (http://www.inkscape.org/) -->

<svg
   xmlns:dc="http://purl.org/dc/elements/1.1/"
   xmlns:cc="http://creativecommons.org/ns#"
   xmlns:rdf="http://www.w3.org/1999/02/22-rdf-syntax-ns#"
   xmlns:svg="http://www.w3.org/2000/svg"
   xmlns="http://www.w3.org/2000/svg"
   xmlns:sodipodi="http://sodipodi.sourceforge.net/DTD/sodipodi-0.dtd"
   xmlns:inkscape="http://www.inkscape.org/namespaces/inkscape"
   width="210mm"
   height="297mm"
   viewBox="0 0 210 297"
   version="1.1"
   id="svg8"
   sodipodi:docname="iniciales.svg"
   inkscape:version="0.92.2 (5c3e80d, 2017-08-06)">
  <defs
     id="defs2" />
  <sodipodi:namedview
     id="base"
     pagecolor="#ffffff"
     bordercolor="#666666"
     borderopacity="1.0"
     inkscape:pageopacity="0.0"
     inkscape:pageshadow="2"
     inkscape:zoom="0.35"
     inkscape:cx="400"
     inkscape:cy="560"
     inkscape:document-units="mm"
     inkscape:current-layer="layer1"
     showgrid="false"
     inkscape:window-width="1366"
     inkscape:window-height="705"
     inkscape:window-x="1358"
     inkscape:window-y="-8"
     inkscape:window-maximized="1"
     inkscape:snap-page="false"
     inkscape:snap-center="true"
     inkscape:snap-object-midpoints="true" />
  <metadata
     id="metadata5">
    <rdf:RDF>
      <cc:Work
         rdf:about="">
        <dc:format>image/svg+xml</dc:format>
        <dc:type
           rdf:resource="http://purl.org/dc/dcmitype/StillImage" />
        <dc:title></dc:title>
      </cc:Work>
    </rdf:RDF>
  </metadata>
  <g
     inkscape:label="Capa 1"
     inkscape:groupmode="layer"
     id="layer1">
    <path
       id="path3874"
       transform="scale(0.26458333)"
       style="fill:#000080;stroke-width:0.99999994"
       d="m 511.27734,388.76172 c -0.43484,0.46608 -0.87391,0.92623 -1.30859,1.39258 0.89159,-0.24086 1.72468,-0.44658 2.5332,-0.63672 -0.40298,-0.2607 -0.81017,-0.51437 -1.22461,-0.75586 z" />
    <path
       style="fill:#000080;stroke-width:0.26458332"
       id="path3951"
       d="M 6.0229376,0.54368877 C 5.8698328,2.5128567 6.2121631,4.450063 6.4685936,6.3929436 c 0.084429,1.592471 0.4865648,3.1334393 0.7500461,4.6998744 0.2339591,1.507333 0.2770934,3.03386 0.3055009,4.55611 0.018325,1.512162 0.012607,3.024486 0.010388,4.536721 -0.00251,1.511816 -0.00352,3.023634 -0.00411,4.535452 -4.498e-4,1.511894 -4.234e-4,3.023787 -4.234e-4,4.535682 0.032944,1.537475 0.032287,3.053329 -0.2159071,4.572336 -0.1236586,1.40883 -0.6209654,2.729153 -0.9432949,4.094853 -0.4662574,1.399755 -0.7788949,2.838905 -1.1836132,4.256167 -0.3667625,1.48862 -0.6803366,2.997721 -1.1856826,4.447305 -0.3180445,0.84011 -0.1675426,0.421219 -0.4522549,1.256397 0,0 -4.48151702,-0.145841 -4.48151702,-0.145841 v 0 C -0.64799733,46.886333 -0.8000235,47.308682 -0.4761776,46.470961 0.06677676,45.046254 0.34121301,43.531057 0.71328094,42.055864 1.1146109,40.645574 1.4194409,39.212893 1.8877155,37.821748 2.198183,36.460916 2.718603,35.157666 2.8387246,33.75588 c 0.2493915,-1.494459 0.2467618,-2.985484 0.2145099,-4.499097 2.3e-6,-1.511953 -2.33e-5,-3.023903 4.233e-4,-4.535854 5.821e-4,-1.511979 0.00159,-3.023958 0.0041,-4.535935 0.0022,-1.509222 0.00791,-3.018533 -0.010491,-4.527681 C 3.0190582,14.157235 2.9769099,12.652768 2.743445,11.167744 2.4767147,9.5967938 2.0826203,8.0484709 2.0016387,6.4506792 1.7505073,4.4878439 1.4452456,2.5306812 1.5365861,0.54368877 c 0,0 4.4863515,0 4.4863515,0 z"
       inkscape:connector-curvature="0" />
    <path
       style="fill:#000080;stroke-width:0.26458332"
       id="path3953"
       d="M 20.113375,0.55727856 C 19.127321,2.6229313 18.310933,4.7625944 17.37156,6.8490776 c -0.68039,1.54706 -1.497495,3.0264407 -2.194625,4.5671624 -0.655855,1.214712 -1.495621,2.329664 -2.411714,3.360117 -0.741937,0.850265 -1.526764,1.665694 -2.338164,2.450225 -1.1923458,0.816754 -1.3845735,0.969783 -0.351431,2.062771 1.171599,0.783023 2.404519,1.477677 3.50958,2.363702 1.077075,1.04569 1.656644,2.408027 2.211791,3.773167 0.406603,1.375485 1.15275,2.608943 1.664439,3.943171 0.532621,1.423201 0.8518,2.905828 1.272761,4.360933 0.527791,1.494137 0.962638,3.017991 1.44956,4.525778 0.466206,1.219655 0.835071,2.617679 1.731062,3.599756 0.723501,1.027867 1.882663,1.458212 2.917813,2.069825 0.18567,0.09378 0.379222,0.173368 0.557009,0.281353 0.982378,0.596675 0.01182,0.131453 0.987856,0.667649 0.51837,0.284774 1.079604,0.432081 1.606207,0.703136 0.702648,0.313028 0.343487,0.172135 1.077804,0.421862 0,0 -4.456281,0.54556 -4.456281,0.54556 v 0 c -0.737678,-0.291851 -0.376515,-0.136768 -1.083953,-0.464171 -1.097427,-0.488889 -2.130601,-1.045642 -3.14974,-1.683319 -1.096429,-0.597408 -2.19222,-1.187625 -2.936528,-2.233131 -0.828299,-1.106395 -1.26965,-2.47781 -1.722877,-3.770426 -0.47763,-1.516124 -0.938967,-3.035028 -1.451243,-4.539488 -0.407139,-1.445853 -0.743107,-2.909046 -1.276305,-4.318233 -0.528463,-1.322507 -1.25189,-2.56341 -1.660076,-3.93488 C 10.779023,24.303314 10.216048,23.002149 9.1227369,22.061762 7.9714806,21.207552 6.7003199,20.524743 5.6005597,19.610584 4.7454179,18.554496 4.5498755,17.511048 5.9487686,16.855828 6.7909852,16.117513 7.5391935,15.267855 8.2906798,14.440335 9.2271862,13.48148 10.006658,12.369341 10.703853,11.227789 c 0.687976,-1.551892 1.522512,-3.025552 2.223723,-4.5686994 0.957312,-2.0789942 1.788431,-4.2116797 2.702213,-6.3098405 0,0 4.483586,0.20802946 4.483586,0.20802946 z"
       inkscape:connector-curvature="0" />
    <path
       style="fill:#000080;stroke-width:0.26458332"
       id="path3955"
       d="M 51.475441,2.5294814 C 49.347114,2.4401112 47.241687,2.5716374 45.132487,2.841285 43.726023,3.0956472 42.38622,3.5492372 41.118144,4.2012129 39.75817,4.8354876 38.416989,5.4956246 37.103438,6.2240426 35.95561,7.0160892 34.799423,7.7511867 33.794681,8.7209732 32.84483,9.6376587 32.314409,10.745488 31.99861,12.007123 c -0.389112,1.530421 -0.09087,2.955542 0.460679,4.394351 0.733769,1.794291 1.806641,3.340275 3.00219,4.843936 1.001877,1.201158 2.332416,1.908328 3.739309,2.523541 1.506442,0.424437 3.000883,0.914279 4.541811,1.213868 1.471168,0.244387 2.965609,0.266125 4.453017,0.285176 1.883923,0.05582 4.478612,-0.390857 -3.838406,0.705558 -0.683932,0.09016 -1.475801,-0.006 -2.162008,-0.0078 -1.851774,-0.0034 -3.703553,-0.0031 -5.555329,-0.003 -1.57053,0.121454 -4.99454,-0.374346 2.015487,0.06526 0.259154,0.01625 -0.515858,0.06389 -0.77048,0.114803 -0.753748,0.150721 -0.799076,0.206375 -1.51887,0.490646 -1.356317,0.554718 -2.572218,1.34946 -3.53491,2.454024 -0.859089,1.187492 -0.989758,2.630328 -1.08672,4.04604 -0.192643,1.703337 0.375581,3.195156 1.393018,4.530061 1.133731,1.369197 2.645227,2.297205 4.189344,3.134024 1.7209,0.842277 3.536513,1.373692 5.427199,1.643544 1.793438,0.169132 3.575328,0.175167 5.353111,0.474509 1.803955,0.296018 3.628712,0.396671 5.453059,0.455107 1.721512,0.04353 3.443714,0.04152 5.165643,0.04072 0,0 -4.418594,0.699765 -4.418594,0.699765 v 0 c -1.718765,-0.0013 -3.437898,-0.0033 -5.155967,-0.05835 -1.831592,-0.07248 -3.661132,-0.201761 -5.470819,-0.507582 -1.773772,-0.265922 -3.565448,-0.226899 -5.342115,-0.475713 -1.898652,-0.330068 -3.733987,-0.902729 -5.44776,-1.799286 -1.565362,-0.899631 -3.107843,-1.874633 -4.223141,-3.327548 -0.99359,-1.458021 -1.588074,-3.042348 -1.393632,-4.837345 0.08659,-1.505776 0.240009,-3.03109 1.086779,-4.327321 0.940255,-1.194769 2.163953,-2.068809 3.56453,-2.663437 2.853698,-1.338614 6.040874,-0.821273 9.129265,-0.851005 1.850591,8.99e-4 3.701185,0.0025 5.551778,0.0042 2.603569,0.0015 -0.573016,-4.76e-4 1.633543,0.0013 0.191733,1.56e-4 0.763339,-0.03669 0.575202,2.65e-4 -2.230147,0.438052 -3.235627,0.759866 -5.042421,0.691543 -1.49383,-0.03069 -2.995462,-0.07413 -4.465312,-0.369051 -1.539526,-0.344114 -3.066003,-0.794144 -4.552831,-1.312997 -1.427181,-0.68075 -2.76175,-1.46212 -3.750453,-2.734768 C 29.792609,20.00516 28.752834,18.381537 27.997184,16.56353 27.423808,15.040658 27.130388,13.516509 27.518955,11.900638 27.833648,10.55993 28.35117,9.3653209 29.320402,8.3583554 29.624774,8.0711185 29.893955,7.7469936 30.208148,7.4705323 30.956459,6.8120809 31.944706,6.4660274 32.657584,5.752966 33.956601,5.0025421 35.281817,4.3130409 36.659153,3.7213135 37.931095,2.9901134 39.2899,2.5273947 40.720324,2.200537 c 2.104046,-0.2752535 4.196993,-0.4838563 6.324,-0.3728648 0,0 4.431117,0.7018201 4.431117,0.7018201 z"
       inkscape:connector-curvature="0" />
    <path
       style="fill:#000080;stroke-width:0.26458332"
       id="path3959"
       d="m 69.380268,1.314473 c 2.481541,0.5830512 4.849138,1.5042623 7.074938,2.7364952 2.136174,1.1598473 3.646998,3.041035 5.252947,4.8006772 1.393664,1.7917126 2.663759,3.6880226 3.603493,5.7577616 0.639093,1.533038 0.776226,3.180225 0.843258,4.819918 0.03552,1.513242 0.01606,3.02711 0.0076,4.540567 -0.0087,1.5104 -0.01111,3.020825 -0.01262,4.531244 -0.0011,1.511787 -0.0011,3.023571 -7.94e-4,4.535355 6.6e-5,1.511922 1.14e-4,3.023841 1.38e-4,4.535763 5e-6,0.251984 -0.01688,0.504536 1e-5,0.755954 0.01728,0.257111 0.05312,0.807852 0.313463,1.015587 0.08917,0.07115 0.450321,0.06731 0.336301,0.06351 -4.27604,-0.142433 -5.141243,0.51643 -3.563398,-0.468188 1.668865,-1.33582 2.679843,-3.21111 3.614148,-5.089019 0.916863,-1.917605 1.573808,-3.938844 2.404282,-5.891295 0.760259,-1.969702 1.407612,-3.986109 2.059024,-5.995284 0.55058,-2.012695 1.174531,-4.001056 1.893377,-5.959836 0.693751,-1.638945 1.663721,-3.149545 2.601542,-4.658575 0.789744,-1.245746 2.104335,-1.7553348 3.457824,-2.1607391 1.963709,-0.4523195 3.988909,-0.4948357 5.994449,-0.5435415 3.14866,-0.04223 6.29781,-0.024138 9.44668,-0.015618 1.51609,0.00428 3.03218,0.00559 4.54828,0.00637 0,0 -4.42185,0.700079 -4.42185,0.700079 v 0 c -1.51555,-0.00106 -3.03109,-0.00286 -4.54663,-0.0076 -1.53876,-0.0043 -4.91633,-0.00122 2.03436,-0.00525 0.28147,-1.635e-4 -0.56295,-7.673e-4 -0.84442,-3.969e-4 -0.92052,0.00122 -0.87346,0.00259 -1.81034,0.010822 -1.9937,0.034979 -4.00086,0.066367 -5.96673,0.4351128 -1.27478,0.3236617 -2.60736,0.7223057 -3.4177,1.8294577 -0.923484,1.490824 -1.921744,2.95535 -2.624245,4.56635 -0.715785,1.95447 -1.35578,3.931688 -1.895146,5.942693 -0.653333,2.0216 -1.307219,4.048521 -2.055908,6.035201 -0.834978,1.960869 -1.510684,3.984178 -2.420538,5.914797 -0.934096,1.924722 -1.943119,3.852069 -3.578413,5.284404 -1.46069,1.458391 -5.390274,1.962695 -5.947825,-0.313245 -0.118729,-0.484659 -0.08735,-0.959178 -0.08736,-1.451753 -2.4e-5,-1.511919 -7.1e-5,-3.023838 -1.37e-4,-4.53576 -3.7e-5,-1.511935 -1.86e-4,-3.023873 7.93e-4,-4.53581 0.0016,-1.51111 0.0039,-3.022223 0.01251,-4.533312 0.0084,-1.506529 0.02782,-3.01346 -0.007,-4.519782 -0.06456,-1.582109 -0.194122,-3.171651 -0.824277,-4.646544 C 79.918681,12.778566 78.681034,10.909406 77.278983,9.1792927 75.701979,7.442101 74.167057,5.6384726 72.051467,4.526055 69.801744,3.3362646 67.415907,2.4657285 64.933316,1.8924539 c 0,0 4.446971,-0.5779917 4.446971,-0.5779917 z"
       inkscape:connector-curvature="0" />
    <path
       style="fill:#000080;stroke-width:0.26458332"
       id="path3967"
       d="m 130.93086,6.6268927 c 0.39049,2.4240159 0.92065,4.8082903 1.49323,7.1937553 0.3941,1.600638 0.51851,3.242649 0.57913,4.884069 0.0372,1.503558 0.027,3.007777 0.0232,4.511646 -0.002,1.581243 -0.009,3.162471 -0.0124,4.743705 -10e-4,1.675823 0.001,3.351644 0.003,5.027465 0.001,1.530024 0.001,3.060051 0.002,4.590078 0.0976,1.439453 -0.0544,2.828066 -0.33827,4.233892 -0.23225,1.127929 -0.31339,2.277306 -0.37162,3.424931 0,0 -4.51886,-0.051 -4.51886,-0.051 v 0 c 0.20806,-1.140267 0.10639,-2.332635 0.40566,-3.463443 0.27921,-1.37789 0.45566,-2.730675 0.34636,-4.144373 1.1e-4,-1.530027 2.5e-4,-3.060057 0.001,-4.590084 10e-4,-1.675913 0.004,-3.351826 0.004,-5.02774 -0.001,-1.581514 -0.005,-3.16302 0.002,-4.744533 0.004,-1.498032 0.0135,-2.996401 -0.023,-4.494133 -0.0587,-1.611782 -0.17976,-3.223726 -0.55844,-4.797165 -0.55414,-2.388157 -1.02558,-4.7855857 -1.51335,-7.1873864 0,0 4.47622,-0.1096799 4.47622,-0.1096799 z"
       inkscape:connector-curvature="0" />
    <path
       style="fill:#000080;stroke-width:0.26458332"
       id="path3969"
       d="m 131.36043,4.8514708 c 2.13565,0.00515 4.27131,0.00235 6.40696,0.00269 2.96982,-0.068529 5.8713,0.7567326 8.72296,1.4941116 2.09065,0.7352471 4.38708,1.3429448 5.9912,2.9543202 1.12357,1.0840434 1.78244,2.3711134 2.36236,3.8007224 0.61008,1.597778 0.73926,3.295488 0.81715,4.986148 -0.0632,1.824666 0.37837,3.764005 -0.34982,5.484185 -0.63283,1.304198 -1.86946,1.811925 -3.10763,2.380787 -1.26095,0.548509 -2.63219,0.655255 -3.98747,0.730752 -2.73959,-0.116642 -6.28072,0.808082 -8.63328,-0.346324 -0.88384,-0.959351 -0.12742,-1.897246 0.72127,-2.531426 2.45486,-1.141043 5.53563,-1.231308 8.07455,-0.303273 1.52436,0.483976 2.73093,1.479703 3.84934,2.592006 1.47573,1.499247 2.91787,3.037992 4.45334,4.477368 1.40883,1.341075 2.49652,2.933911 3.53402,4.564181 0.70394,1.247635 1.4466,2.50521 2.42724,3.557505 0.92605,1.044316 2.20195,1.363081 3.52674,1.561637 1.49891,0.193159 2.96707,0.548286 4.47331,0.719037 1.71608,0.142235 3.43921,0.155861 5.16008,0.166696 0.26973,7.94e-4 0.53946,0.0013 0.80919,0.0021 0,0 -4.41786,0.697977 -4.41786,0.697977 v 0 c -0.26933,-0.0013 -0.53866,-0.0028 -0.80799,-0.0042 -1.72558,-0.01746 -3.45472,-0.03765 -5.1727,-0.216461 -1.50297,-0.199414 -2.97704,-0.549008 -4.4806,-0.741492 -1.37805,-0.278633 -2.63639,-0.749623 -3.56757,-1.861182 -0.9337,-1.116571 -1.70153,-2.357485 -2.40728,-3.628284 -1.02423,-1.603492 -2.12306,-3.152455 -3.52317,-4.457576 -1.50702,-1.470824 -2.97011,-2.987217 -4.45614,-4.479001 -1.12429,-1.050732 -2.34277,-1.962326 -3.84924,-2.379827 -1.53556,-0.373112 -4.49424,-0.361568 2.62611,-0.24483 0.91219,0.01496 -2.5905,0.201928 -1.77903,0.424317 -0.56857,0.311179 -1.5989,0.986763 -0.73514,1.551843 1.73802,0.53365 0.66622,0.144671 -3.23324,0.224932 -0.25108,0.0052 0.50227,5.3e-4 0.7534,8.4e-5 0.74247,-0.0013 1.48502,-0.005 2.22725,-0.02572 1.33366,-0.05077 2.6897,-0.105954 3.9571,-0.56761 1.166,-0.496022 2.42658,-0.898844 3.0901,-2.062319 0.84493,-1.568667 0.25321,-3.551296 0.35958,-5.264599 -0.0804,-1.639384 -0.21291,-3.288206 -0.81968,-4.832095 -0.57654,-1.367442 -1.25908,-2.587743 -2.35847,-3.6116467 -1.64855,-1.4523196 -3.84633,-2.0599405 -5.89055,-2.7385742 -2.86839,-0.7177977 -5.7736,-1.494264 -8.75665,-1.3777571 -2.14695,3.439e-4 -4.2939,-0.00243 -6.44085,0.00269 0,0 4.43111,-0.70182 4.43111,-0.70182 z"
       inkscape:connector-curvature="0" />
  </g>
</svg>
